# xmcd CD database file
#
# Track frame offsets:
#	180
#	27189
#	62382
#	92821
#	108950
#	162145
#	187720
#	226852
#	254448
#	287417
#	309014
#
# Disc length: 4439 seconds
#
# Revision: 1
# Processed by: cddbd v1.4PL0 Copyright (c) Steve Scherf et al.
# Submitted via: CDex 1.50Beta7
#
DISCID=7611550b
DTITLE=T. Harvey Combo - $1 Beer, Free Pool, NO COVER!
DYEAR=1995
DGENRE=Blues
TTITLE0=Preacher
TTITLE1=You Shook Me
TTITLE2=Killing Floor
TTITLE3=Happy Feet
TTITLE4=My Own Fault, Darlin'
TTITLE5=Who's Been Talkin'¿
TTITLE6=Can't Get High
TTITLE7=Ain't Superstitious
TTITLE8=Mickey Rood
TTITLE9=Trap Door Mona
TTITLE10=Little Wing
EXTD=YEAR: 1995
EXTT0=
EXTT1=
EXTT2=
EXTT3=
EXTT4=
EXTT5=
EXTT6=
EXTT7=
EXTT8=
EXTT9=
EXTT10=
PLAYORDER=
